<?xml version="1.0" encoding="utf-8"?>
<!-- Generator: Adobe Illustrator 23.0.2, SVG Export Plug-In . SVG Version: 6.00 Build 0)  -->
<svg version="1.1" id="Layer_1" xmlns="http://www.w3.org/2000/svg" xmlns:xlink="http://www.w3.org/1999/xlink" x="0px" y="0px"
	 viewBox="0 0 1500 820" style="enable-background:new 0 0 1500 820;" xml:space="preserve">
<style type="text/css">
	.st0{fill:#306EFF;}
	.st1{fill:#F72585;}
	.st2{fill:#51E9B4;}
	.st3{fill:#FFCC03;}
</style>
<path class="st0" d="M153.4,455.3L143.3,445c-1-1-1-2.6,0-3.6l10.1-10.3c1-1,2.6-1,3.6,0l10.1,10.3c1,1,1,2.6,0,3.6l-10.1,10.3
	C156,456.3,154.4,456.3,153.4,455.3z"/>
<circle class="st1" cx="1184" cy="85.3" r="9.7"/>
<circle class="st2" cx="357.2" cy="222.1" r="12.6"/>
<path class="st3" d="M42.6-16.4c0.6-1.7,2.1-2.8,3.9-3.1l16.4-2.6c1.8-0.3,3.5,0.4,4.6,1.8l10.4,13c1.1,1.4,1.4,3.3,0.8,4.9l-6,15.5
	c-0.6,1.7-2.1,2.8-3.9,3.1l-16.4,2.6c-1.8,0.3-3.5-0.4-4.6-1.8L37.3,4c-1.1-1.4-1.4-3.3-0.8-4.9L42.6-16.4z"/>
<path class="st3" d="M1447.5,676.1c0.3-0.8,1-1.3,1.8-1.5l7.7-1.2c0.8-0.1,1.7,0.2,2.2,0.8l4.9,6.1c0.5,0.6,0.7,1.5,0.4,2.3
	l-2.8,7.3c-0.3,0.8-1,1.3-1.8,1.5l-7.7,1.2c-0.8,0.1-1.7-0.2-2.2-0.8l-4.9-6.1c-0.5-0.6-0.7-1.5-0.4-2.3L1447.5,676.1z"/>
<path class="st1" d="M807.5,153.2c0.3-0.8,1-1.3,1.8-1.5l7.7-1.2c0.8-0.1,1.7,0.2,2.2,0.8l4.9,6.1c0.5,0.6,0.7,1.5,0.4,2.3l-2.8,7.3
	c-0.3,0.8-1,1.3-1.8,1.5l-7.7,1.2c-0.8,0.1-1.7-0.2-2.2-0.8l-4.9-6.1c-0.5-0.6-0.7-1.5-0.4-2.3L807.5,153.2z"/>
<path class="st3" d="M1108.1,334.8c0.3-0.8,1-1.3,1.8-1.5l7.7-1.2c0.8-0.1,1.7,0.2,2.2,0.8l4.9,6.1c0.5,0.6,0.7,1.5,0.4,2.3
	l-2.8,7.3c-0.3,0.8-1,1.3-1.8,1.5l-7.7,1.2c-0.8,0.1-1.7-0.2-2.2-0.8l-4.9-6.1c-0.5-0.6-0.7-1.5-0.4-2.3L1108.1,334.8z"/>
<path class="st1" d="M109.3,171.6c0.4-1,1.2-1.6,2.2-1.8l9.5-1.5c1-0.2,2,0.2,2.7,1l6,7.5c0.6,0.8,0.8,1.9,0.4,2.8l-3.5,9
	c-0.4,1-1.2,1.6-2.2,1.8L115,192c-1,0.2-2-0.2-2.7-1l-6-7.5c-0.6-0.8-0.8-1.9-0.4-2.8L109.3,171.6z"/>
<path class="st2" d="M212.5,695.7c0.3-0.9,1.1-1.5,2.1-1.7l8.9-1.4c0.9-0.1,1.9,0.2,2.5,1l5.7,7c0.6,0.8,0.8,1.8,0.4,2.7l-3.3,8.4
	c-0.3,0.9-1.1,1.5-2.1,1.7l-8.9,1.4c-1,0.1-1.9-0.2-2.5-1l-5.7-7c-0.6-0.8-0.8-1.8-0.4-2.7L212.5,695.7z"/>
<path class="st2" d="M732.4-117.9c0.3-0.9,1.1-1.5,2.1-1.7l8.9-1.4c0.9-0.1,1.9,0.2,2.5,1l5.7,7c0.6,0.8,0.8,1.8,0.4,2.7l-3.3,8.4
	c-0.3,0.9-1.1,1.5-2.1,1.7l-8.9,1.4c-1,0.1-1.9-0.2-2.5-1l-5.7-7c-0.6-0.8-0.8-1.8-0.4-2.7L732.4-117.9z"/>
<circle class="st1" cx="730.6" cy="767.9" r="10"/>
<path class="st2" d="M1372.8,162.4c0.3-0.7,0.8-1.1,1.5-1.2l6.6-1c0.7-0.1,1.4,0.2,1.9,0.7l4.2,5.2c0.4,0.6,0.6,1.3,0.3,2l-2.4,6.2
	c-0.3,0.7-0.8,1.1-1.5,1.2l-6.6,1c-0.7,0.1-1.4-0.2-1.9-0.7l-4.2-5.2c-0.4-0.6-0.6-1.3-0.3-2L1372.8,162.4z"/>
<g>
	<path class="st0" d="M225.8,1376.4c0.6-1.7,2.1-2.9,3.9-3.1l16.5-2.6c1.8-0.3,3.5,0.4,4.7,1.8l10.5,13c1.1,1.4,1.4,3.3,0.8,4.9
		l-6,15.6c-0.6,1.7-2.1,2.9-3.9,3.1l-16.5,2.6c-1.8,0.3-3.5-0.4-4.7-1.8l-10.5-13c-1.1-1.4-1.4-3.3-0.8-4.9L225.8,1376.4z"/>
	<path class="st1" d="M171.4,1555.7c0.4-1,1.3-1.7,2.3-1.9l9.8-1.5c1-0.2,2.1,0.2,2.8,1.1l6.2,7.7c0.7,0.8,0.8,1.9,0.5,2.9l-3.6,9.2
		c-0.4,1-1.3,1.7-2.3,1.9l-9.8,1.5c-1,0.2-2.1-0.2-2.8-1.1l-6.2-7.7c-0.7-0.8-0.8-1.9-0.5-2.9L171.4,1555.7z"/>
	<path class="st1" d="M112.7,1117.8c0.6-1.7,2.1-2.9,3.9-3.1l16.5-2.6c1.8-0.3,3.5,0.4,4.7,1.8l10.5,13c1.1,1.4,1.4,3.3,0.8,4.9
		l-6,15.6c-0.6,1.7-2.1,2.9-3.9,3.1l-16.5,2.6c-1.8,0.3-3.5-0.4-4.7-1.8l-10.5-13c-1.1-1.4-1.4-3.3-0.8-4.9L112.7,1117.8z"/>
	<path class="st2" d="M409.1,1266.4c0.4-1.2,1.5-2,2.7-2.2l11.4-1.8c1.2-0.2,2.5,0.3,3.2,1.3l7.3,9c0.8,1,1,2.3,0.5,3.4l-4.2,10.8
		c-0.4,1.2-1.5,2-2.7,2.2l-11.5,1.8c-1.2,0.2-2.5-0.3-3.2-1.3l-7.3-9c-0.8-1-1-2.3-0.5-3.4L409.1,1266.4z"/>
	<path class="st2" d="M1496.3,1490.7c0.6-1.7,2.1-2.9,3.9-3.1l16.5-2.6c1.8-0.3,3.5,0.4,4.7,1.8l10.5,13c1.1,1.4,1.4,3.3,0.8,4.9
		l-6,15.6c-0.6,1.7-2.1,2.9-3.9,3.1l-16.5,2.6c-1.8,0.3-3.5-0.4-4.7-1.8l-10.5-13c-1.1-1.4-1.4-3.3-0.8-4.9L1496.3,1490.7z"/>
	<path class="st1" d="M1392.4,1283.7c0.4-0.9,1.2-1.6,2.2-1.8l9.3-1.4c1-0.2,2,0.2,2.6,1l5.9,7.3c0.6,0.8,0.8,1.8,0.4,2.8l-3.4,8.8
		c-0.4,0.9-1.2,1.6-2.2,1.8l-9.3,1.4c-1,0.2-2-0.2-2.6-1l-5.9-7.3c-0.6-0.8-0.8-1.8-0.4-2.8L1392.4,1283.7z"/>
	<path class="st0" d="M1162.9,1587c0.5-1.3,1.7-2.3,3.1-2.5l13.2-2c1.4-0.2,2.8,0.3,3.7,1.4l8.3,10.4c0.9,1.1,1.1,2.6,0.6,3.9
		l-4.8,12.4c-0.5,1.3-1.7,2.3-3.1,2.5l-13.2,2c-1.4,0.2-2.8-0.3-3.7-1.4l-8.3-10.4c-0.9-1.1-1.1-2.6-0.6-3.9L1162.9,1587z"/>
</g>
</svg>
